<svg viewBox="0 0 100 100" xmlns="http://www.w3.org/2000/svg"><path style="fill:#1b1817;fill-opacity:1;opacity:1;stroke-width:6.55748" d="M0 0h100v100H0z"/><path d="M50.003 15.864C69.33 15.864 85 31.534 85 50.865c0 15.464-10.028 28.581-23.936 33.211-1.75.32-2.389-.76-2.389-1.689 0-.829.03-3.031.047-5.951 9.736 2.114 11.79-4.693 11.79-4.693 1.592-4.044 3.887-5.12 3.887-5.12 3.178-2.17-.241-2.127-.241-2.127-3.513.247-5.36 3.607-5.36 3.607-3.123 5.348-8.193 3.803-10.187 2.907-.318-2.26-1.22-3.803-2.222-4.677 7.772-.883 15.943-3.887 15.943-17.299 0-3.82-1.365-6.944-3.604-9.391.361-.886 1.563-4.444-.341-9.263 0 0-2.94-.941-9.626 3.588-2.791-.778-5.786-1.164-8.762-1.177-2.972.013-5.967.4-8.762 1.177-6.682-4.53-9.615-3.588-9.615-3.588-1.91 4.82-.71 8.377-.348 9.263-2.243 2.447-3.6 5.571-3.6 9.391 0 13.446 8.185 16.405 15.982 17.271-1.257 1.08-2.376 3.216-2.376 6.482 0 4.678.043 8.453.043 9.6 0 .937-.63 2.027-2.407 1.685C25.02 79.433 15 66.324 15 50.865c0-19.331 15.672-35.001 35.003-35.001" style="fill:#fff;fill-opacity:1;fill-rule:evenodd;stroke:none;stroke-width:.999999"/></svg>