<svg viewBox="0 0 100 100" xmlns="http://www.w3.org/2000/svg"><path style="opacity:1;fill:#ccc;fill-opacity:1;stroke-width:7.26231" d="M0 0h100v100H0z"/><path class="st3" d="m49.998 82.237 12.895-39.668H37.121Z" style="fill:#e24329;stroke-width:1"/><path class="st4" d="M19.058 42.57 15.13 54.62a2.67 2.67 0 0 0 .966 2.984l33.9 24.632Z" style="fill:#fca326;stroke-width:1"/><path class="st3" d="M19.058 42.57H37.12l-7.774-23.89c-.398-1.222-2.132-1.222-2.544 0z" style="fill:#e24329;stroke-width:1"/><path class="st4" d="m80.956 42.57 3.914 12.05a2.67 2.67 0 0 1-.966 2.984L49.998 82.237Z" style="fill:#fca326;stroke-width:1"/><path class="st3" d="M80.956 42.57H62.894l7.759-23.89c.398-1.222 2.132-1.222 2.544 0z" style="fill:#e24329;stroke-width:1"/><path style="fill:#fc6d26;stroke-width:4.82321" class="st5" d="m50.017 82.237 30.94-39.667H62.893Zm-.019 0L19.058 42.57H37.12z"/></svg>