<?xml version="1.0" encoding="UTF-8" standalone="no"?>
<svg
   width="100"
   height="100"
   viewBox="0 0 100 100"
   version="1.1"
   id="svg8"
   inkscape:version="1.1.1 (3bf5ae0d25, 2021-09-20)"
   sodipodi:docname="github.svg"
   xmlns:inkscape="http://www.inkscape.org/namespaces/inkscape"
   xmlns:sodipodi="http://sodipodi.sourceforge.net/DTD/sodipodi-0.dtd"
   xmlns="http://www.w3.org/2000/svg"
   xmlns:svg="http://www.w3.org/2000/svg"
   xmlns:rdf="http://www.w3.org/1999/02/22-rdf-syntax-ns#"
   xmlns:cc="http://creativecommons.org/ns#"
   xmlns:dc="http://purl.org/dc/elements/1.1/">
  <defs
     id="defs2" />
  <sodipodi:namedview
     id="base"
     pagecolor="#ffffff"
     bordercolor="#666666"
     borderopacity="1.0"
     inkscape:pageopacity="0.0"
     inkscape:pageshadow="2"
     inkscape:zoom="4.6360027"
     inkscape:cx="58.239828"
     inkscape:cy="63.632405"
     inkscape:document-units="px"
     inkscape:current-layer="svg8"
     inkscape:document-rotation="0"
     showgrid="false"
     units="px"
     inkscape:window-width="1920"
     inkscape:window-height="1019"
     inkscape:window-x="0"
     inkscape:window-y="33"
     inkscape:window-maximized="1"
     inkscape:pagecheckerboard="0" />
  <metadata
     id="metadata5">
    <rdf:RDF>
      <cc:Work
         rdf:about="">
        <dc:format>image/svg+xml</dc:format>
        <dc:type
           rdf:resource="http://purl.org/dc/dcmitype/StillImage" />
      </cc:Work>
    </rdf:RDF>
  </metadata>
  <rect
     style="fill: #1b1817;
  fill-opacity: 1;
  opacity: 1;
  stroke-width: 6.55748;"
     id="rect832"
     width="100"
     height="100"
     x="0"
     y="0" />
  <path
     d="M 50.003222,15.863891 C 69.330089,15.863891 85,31.533801 85,50.864965 85,66.328607 74.972373,79.445952 61.064334,84.076237 c -1.751127,0.32014 -2.389268,-0.76061 -2.389268,-1.68882 0,-0.829368 0.03008,-3.031707 0.04727,-5.951686 9.735412,2.114245 11.789496,-4.692594 11.789496,-4.692594 1.59213,-4.043709 3.88686,-5.120169 3.88686,-5.120169 3.177814,-2.17011 -0.240646,-2.127137 -0.240646,-2.127137 -3.512998,0.247092 -5.360815,3.607538 -5.360815,3.607538 -3.12195,5.347924 -8.192701,3.803064 -10.186623,2.907088 -0.317995,-2.260352 -1.220417,-3.803063 -2.221677,-4.677553 7.771571,-0.883084 15.942786,-3.88686 15.942786,-17.298566 0,-3.820253 -1.364376,-6.944351 -3.603241,-9.391633 0.360969,-0.885233 1.562049,-4.443353 -0.341632,-9.262715 0,0 -2.939317,-0.941097 -9.625832,3.588201 -2.791062,-0.777802 -5.786243,-1.164554 -8.762086,-1.177446 -2.971546,0.01289 -5.966727,0.399644 -8.762085,1.177446 -6.68222,-4.529298 -9.615089,-3.588201 -9.615089,-3.588201 -1.910127,4.819362 -0.709046,8.377482 -0.348078,9.262715 -2.243163,2.447282 -3.598944,5.57138 -3.598944,9.391633 0,13.446084 8.184106,16.404739 15.98146,17.270634 -1.256945,1.080757 -2.376378,3.216489 -2.376378,6.482396 0,4.677553 0.04297,8.452684 0.04297,9.600049 0,0.9368 -0.629547,2.02615 -2.406458,1.68452 C 25.01903,79.43306 15,66.324309 15,50.864965 15,31.533801 30.672057,15.863891 50.003221,15.863891"
     style="fill: #fff;
  fill-opacity: 1;
  fill-rule: evenodd;
  stroke: none;
  stroke-width: 0.999999;"
     id="path198" />
</svg>
